<?xml version="1.0" encoding="utf-8"?>
<!-- Generator: Adobe Illustrator 22.1.0, SVG Export Plug-In . SVG Version: 6.00 Build 0)  -->
<svg version="1.1" id="Ebene_1" xmlns="http://www.w3.org/2000/svg" xmlns:xlink="http://www.w3.org/1999/xlink" x="0px" y="0px"
	 viewBox="0 0 80 80" style="enable-background:new 0 0 80 80;" xml:space="preserve">
<style type="text/css">
	.st0{fill:#FFFFFF;}
</style>
<g>
	<path class="st0" d="M25.9,65.2c-0.4,0-0.7-0.1-1.1-0.3l0,0c-0.4-0.2-0.8-0.6-1.1-1c-0.6-0.9-1.1-2-1.4-3.2
		c-0.3-1.1-0.6-2.2-0.7-3.2c0-0.2-0.1-0.4-0.1-0.5l0-0.3l0,0l-0.4-2.4c-0.1-0.5-0.1-1.4-0.2-2.5c0-0.8,0-1.6,0.2-2.4
		c0.1-0.4,0.2-0.7,0.4-0.9c0.2-0.3,0.4-0.4,0.7-0.5c0.7-0.1,1.3-0.1,1.9,0.1c0.6,0.2,1.1,0.4,1.6,0.8c0.4,0.4,0.8,0.9,1.1,1.4
		c0.3,0.6,0.6,1.2,0.8,1.9c0.2,0.7,0.4,1.4,0.5,2.2l0,0.2c0.1,0.5,0.2,1,0.2,1.4l0.2,1.4c0.4,2.4,0.4,4.2,0,5.5
		c-0.4,1.4-1.2,2.1-2.4,2.3C26.2,65.2,26.1,65.2,25.9,65.2z M21.9,56.3c0,0.1,0,0.1,0.1,0.2L22,57c0,0.2,0,0.3,0.1,0.5
		c0.2,1,0.4,2.1,0.7,3.1c0.3,1.1,0.7,2.1,1.4,3c0.3,0.4,0.6,0.7,1,0.9l0,0c0.4,0.2,0.7,0.2,1.1,0.2c1-0.2,1.6-0.8,2-2
		c0.3-1.2,0.3-3,0-5.3L27.9,56c-0.1-0.4-0.2-0.9-0.2-1.4l0-0.2c-0.1-0.8-0.3-1.5-0.5-2.1c-0.2-0.6-0.5-1.2-0.8-1.8
		c-0.3-0.5-0.6-1-1-1.3C25,49,24.5,48.7,24,48.6c-0.5-0.1-1.1-0.2-1.7-0.1c-0.2,0-0.3,0.1-0.4,0.3c-0.1,0.2-0.2,0.4-0.3,0.7
		c-0.2,0.8-0.2,1.5-0.2,2.3c0.1,1.1,0.1,2,0.2,2.5L21.9,56.3z M25.9,64.2c-0.6,0-1.1-0.6-1.6-1.8c-0.4-1.1-0.8-2.3-1.1-3.5
		c-0.2-0.9-0.3-1.7-0.5-2.6c-0.1-0.4-0.1-0.8-0.1-1.2L22.5,54l-0.1-0.6c0-0.2-0.1-0.5-0.1-0.8c-0.1-0.8-0.2-1.5-0.1-2.1
		c0.1-1,0.7-1.3,1.2-1.3c0.6-0.1,1.2,0.1,1.7,0.5c0.5,0.4,0.8,1,1,1.7l0.1,0.5c0.1,0.6,0.3,1.5,0.6,2.8c0.3,1.2,0.5,2.1,0.6,2.9
		c0.1,0.6,0.2,1.3,0.2,2.2c0.1,1,0,1.9-0.1,2.8c-0.1,0.5-0.2,0.9-0.5,1.2c-0.2,0.3-0.6,0.5-0.9,0.6C26,64.2,25.9,64.2,25.9,64.2z
		 M23.7,49.6c-0.1,0-0.2,0-0.3,0c-0.3,0-0.6,0.2-0.7,0.9c-0.1,0.5-0.1,1.2,0.1,1.9c0,0.3,0.1,0.6,0.1,0.8l0.1,0.7l0.1,1.1
		c0,0.3,0.1,0.7,0.1,1.1c0.1,0.9,0.3,1.7,0.5,2.6c0.3,1.2,0.6,2.4,1,3.4c0.4,1,0.8,1.5,1.1,1.5c0.2,0,0.4-0.2,0.6-0.4l0,0
		c0.2-0.2,0.3-0.6,0.4-0.9c0.2-0.9,0.2-1.8,0.1-2.7c0-0.8-0.1-1.6-0.2-2.2c-0.1-0.7-0.3-1.7-0.6-2.8c-0.3-1.2-0.5-2.2-0.6-2.8
		l-0.1-0.4c-0.1-0.5-0.4-1-0.8-1.4C24.4,49.8,24.1,49.6,23.7,49.6z"/>
</g>
<g>
	<path class="st0" d="M32.9,63.8c-0.6,0-1-1-1.4-3.3l0,0L31,56.6c-0.2-1.1-0.4-2.4-0.6-3.8c-0.1-0.5-0.3-1.3-0.5-2.4
		c-0.3-1.2-0.4-1.9-0.5-2.2c0-0.3,0-0.6,0.2-0.8c0.2-0.2,0.4-0.4,0.7-0.4c0.6-0.1,1.2-0.1,1.8,0.1c0.6,0.2,1.2,0.5,1.7,0.9
		c1.1,0.9,1.8,1.9,2.3,3.1c0.2,0.6,0.4,1.2,0.5,1.8c0,0.2,0.1,0.4,0.1,0.6l0.1,0.7l0.2,1.3c0.2,1,0.3,1.9,0.3,2.5
		c0,0.9,0,1.6-0.2,2.3c-0.2,0.8-0.6,1.5-1.2,2.2c-0.3,0.3-0.6,0.6-1.1,1l-0.1,0L32.9,63.8C32.9,63.8,32.9,63.8,32.9,63.8z M32,60.4
		c0.4,2.7,0.8,2.9,0.8,2.9l1.7-0.3c0.4-0.3,0.7-0.6,0.9-0.8c0.5-0.6,0.9-1.3,1.1-2c0.2-0.6,0.2-1.4,0.2-2.2c0-0.6-0.1-1.4-0.3-2.5
		l-0.3-2c0-0.2,0-0.4-0.1-0.6c-0.1-0.6-0.3-1.1-0.5-1.7c-0.4-1.1-1.2-2.1-2.2-2.9c-0.4-0.4-0.9-0.6-1.5-0.8
		c-0.5-0.2-1.1-0.2-1.6-0.1c-0.1,0-0.3,0.1-0.4,0.2c-0.1,0.1-0.1,0.3-0.1,0.4c0,0.3,0.2,1,0.5,2.1c0.3,1.1,0.4,1.9,0.5,2.4
		c0.2,1.4,0.4,2.7,0.6,3.8L32,60.4z M33.6,62.4l-0.1-0.8c-0.2-1.3-0.6-3.1-1-5.4c-0.5-2.5-0.9-4.3-1-5.4c-0.2-1-0.2-1.8-0.2-2.6
		l0-0.3l0.3,0c2.1-0.1,3.5,2.3,4.3,7.5c0.1,0.4,0.1,0.7,0.1,0.9c0.1,0.8,0.1,1.6,0.1,2.3c0,0.4,0,0.8-0.1,1.2
		c-0.1,0.4-0.2,0.8-0.3,1.1c-0.2,0.4-0.4,0.7-0.7,0.9l0,0c-0.3,0.2-0.6,0.4-1,0.5L33.6,62.4z M31.7,48.5c0,0.7,0.1,1.4,0.2,2.3
		c0.2,1,0.5,2.8,1,5.3c0.5,2.2,0.8,4.1,1,5.4l0,0.3c0.2-0.1,0.3-0.2,0.5-0.3l0,0c0.2-0.2,0.4-0.4,0.5-0.7c0.1-0.3,0.2-0.6,0.3-1
		c0.1-0.4,0.1-0.8,0.1-1.2c0-0.7,0-1.5-0.1-2.3c0-0.2-0.1-0.5-0.1-0.8C34.5,51,33.3,48.7,31.7,48.5z"/>
</g>
<g>
	<path class="st0" d="M41.1,62.6c-0.4,0-0.7-0.2-0.8-0.5c-0.1-0.2-0.2-0.5-0.3-0.9c-0.1-0.7-0.2-1.6-0.3-2.6c-0.1-1-0.2-1.9-0.3-2.6
		c-0.1-0.9-0.3-2.2-0.5-3.9l-0.6-3.9c0-0.1-0.1-0.3-0.2-0.6L38,46.8c-0.1-0.4,0-0.8,0.1-1c0.1-0.3,0.4-0.5,0.8-0.5
		c0.5-0.1,1,0,1.6,0.2c0.6,0.2,1.1,0.5,1.4,0.8c0.6,0.7,1,1.7,1.2,2.9c0.1,0.9,0.2,1.7,0.1,2.3c0,0.6-0.2,1.1-0.4,1.7
		c0.5,0.4,0.8,0.9,1.1,1.5c0.3,0.7,0.5,1.5,0.6,2.5c0.2,1,0.1,2-0.1,2.8c-0.3,1-0.8,1.7-1.6,2.1c-0.5,0.3-0.9,0.4-1.4,0.5
		C41.3,62.6,41.2,62.6,41.1,62.6z M39.3,45.8c-0.1,0-0.2,0-0.3,0c-0.2,0-0.3,0.1-0.4,0.2c0,0.1-0.1,0.3,0,0.7l0,0.1l0.2,0.6
		c0.1,0.3,0.2,0.5,0.2,0.7l0.6,3.9c0.2,1.7,0.4,3,0.5,3.9c0.1,0.8,0.2,1.7,0.3,2.7c0.1,1,0.2,1.9,0.3,2.6c0.1,0.3,0.1,0.6,0.2,0.7
		l0,0c0.1,0.1,0.2,0.3,0.5,0.2c0.4-0.1,0.8-0.2,1.2-0.4c0.6-0.4,1.1-1,1.3-1.8c0.2-0.7,0.2-1.6,0.1-2.6c-0.2-1-0.4-1.8-0.6-2.4
		c-0.2-0.6-0.6-1-1.1-1.4l-0.2-0.1l0.1-0.2c0.3-0.5,0.4-1.1,0.5-1.7c0.1-0.6,0-1.3-0.1-2.2c-0.2-1.1-0.6-2-1.1-2.7
		c-0.3-0.3-0.6-0.5-1.1-0.7C39.9,45.8,39.6,45.8,39.3,45.8z M41.5,61.4l-0.2-1.4c0,0,0-0.1,0-0.1L41.2,59c0-0.5-0.1-0.8-0.1-0.9
		c-0.2-1.5-0.4-2.8-0.5-3.7l0-0.3l0.3,0c0.3,0,0.6,0.1,0.9,0.4c0.2,0.2,0.4,0.5,0.6,0.7c0.2,0.3,0.3,0.6,0.4,1
		c0.2,0.5,0.3,1.1,0.4,1.8c0.1,0.7,0,1.3-0.2,1.9l0,0c-0.2,0.6-0.7,1-1.2,1.3L41.5,61.4z M41.8,59.7L41.8,59.7l0.2,0.9
		c0.3-0.2,0.5-0.5,0.6-0.8h0c0.2-0.5,0.2-1.1,0.2-1.7c-0.1-0.7-0.2-1.3-0.4-1.7c-0.1-0.4-0.3-0.7-0.4-0.9c-0.1-0.2-0.3-0.4-0.5-0.6
		c-0.1-0.1-0.2-0.1-0.3-0.2c0.1,0.9,0.2,2,0.4,3.3c0,0.1,0,0.4,0.1,1L41.8,59.7z M40.4,53.2l-0.6-3.9c-0.2-1.5-0.3-2.3-0.1-2.8
		l0.1-0.2l0.2,0c0.9,0,1.4,1.1,1.8,3.4l0,0c0.3,2.1,0,3.3-1,3.5L40.4,53.2z M40.1,46.9c0,0.4,0,1,0.2,2.3l0.5,3.3
		c0.6-0.4,0.5-1.7,0.3-2.8h0C40.8,47.7,40.4,47.1,40.1,46.9z"/>
</g>
<g>
	<path class="st0" d="M48.2,61.6c-0.2,0-0.4-0.1-0.6-0.3c-0.2-0.2-0.3-0.4-0.4-0.7c-0.2-1.4-0.4-3.2-0.7-5.5
		c-0.3-2.4-0.5-4.3-0.7-5.5l0-0.2c-0.3-1-0.4-1.8-0.5-2.3c-0.1-0.8-0.1-1.4-0.1-1.9c0.1-0.7,0.5-0.8,0.8-0.9c0.2,0,0.5,0,0.7,0.2
		c0.2,0.1,0.3,0.3,0.4,0.6c0,0.2,0.1,0.5,0.1,1c0,0.4,0,0.7,0.1,0.9c0.2,1.1,0.3,2.1,0.5,2.9c0.2,0.9,0.3,1.8,0.5,2.9l0,0l0,0
		c0,0.2,0,0.5,0,1l0,0.3l0.3,1.9c0.1,0.6,0.1,1.2,0.3,2c0.1,0.5,0.2,0.9,0.4,1.1c0.2,0.2,0.3,0.2,0.4,0.2c0,0,0.1,0,0.1,0
		c0.1,0,0.2,0,0.3-0.1c0.1,0,0.3-0.1,0.6-0.1c1.3-0.2,1.7,0.3,1.7,0.7c0,0.2,0,0.5-0.2,0.7c-0.2,0.2-0.4,0.3-0.6,0.4l-0.1,0l-0.1,0
		c-0.6-0.1-1.3-0.1-2.1,0c-0.3,0.2-0.5,0.3-0.9,0.4C48.3,61.6,48.3,61.6,48.2,61.6z M46.1,45C46.1,45,46.1,45,46.1,45
		c-0.1,0-0.3,0-0.4,0.5c-0.1,0.4-0.1,0.9,0.1,1.7c0.1,0.5,0.2,1.3,0.5,2.2l0,0.2c0.2,1.2,0.4,3,0.7,5.5c0.2,2.3,0.5,4.1,0.7,5.5
		c0,0.1,0.1,0.3,0.2,0.4c0.1,0.1,0.2,0.1,0.3,0.1c0.2,0,0.5-0.1,0.7-0.3l0.1,0l0.1,0c0.9-0.1,1.6-0.2,2.2-0.1
		c0.1-0.1,0.2-0.1,0.3-0.2c0.1-0.1,0.1-0.2,0.1-0.2c0-0.1-0.1-0.5-1.1-0.3c-0.2,0-0.4,0.1-0.5,0.1c-0.1,0-0.2,0-0.3,0.1
		c-0.1,0-0.1,0-0.2,0c-0.3,0-0.6,0-0.9-0.4c-0.2-0.3-0.3-0.7-0.4-1.3c-0.1-0.7-0.2-1.4-0.3-2l-0.3-2.2c-0.1-0.5-0.1-0.8,0-1.1
		c-0.2-1.1-0.3-2-0.5-2.9c-0.2-0.9-0.3-1.9-0.5-3c0-0.2-0.1-0.5-0.1-1c0-0.4,0-0.7-0.1-0.9c0-0.1-0.1-0.2-0.1-0.2
		C46.3,45,46.2,45,46.1,45z"/>
</g>
<g>
	<path class="st0" d="M56.7,60.4c-0.4,0-0.7-0.1-1.1-0.3l0,0c-0.4-0.2-0.8-0.6-1.1-1c-0.6-0.9-1.1-2-1.4-3.2
		c-0.3-1.1-0.6-2.2-0.7-3.2c0-0.2-0.1-0.4-0.1-0.5l0-0.3l0,0l-0.4-2.4c-0.1-0.5-0.1-1.4-0.2-2.5c0-0.8,0-1.6,0.2-2.4
		c0.1-0.4,0.2-0.7,0.4-0.9c0.2-0.3,0.4-0.4,0.7-0.5c0.7-0.1,1.3-0.1,1.9,0.1c0.6,0.2,1.1,0.4,1.6,0.8c0.4,0.4,0.8,0.9,1.1,1.4
		c0.3,0.6,0.6,1.2,0.8,1.9c0.2,0.7,0.4,1.4,0.5,2.2l0,0.2c0.1,0.5,0.2,1,0.2,1.4l0.2,1.4c0.8,4.8,0,7.5-2.4,7.9
		C56.9,60.4,56.8,60.4,56.7,60.4z M55.9,59.6c0.4,0.2,0.7,0.2,1.1,0.2c2-0.3,2.7-2.8,1.9-7.3l-0.2-1.4c-0.1-0.4-0.2-0.9-0.2-1.4
		l0-0.2c-0.1-0.7-0.3-1.5-0.5-2.1c-0.2-0.6-0.5-1.2-0.8-1.8c-0.3-0.5-0.6-1-1-1.3c-0.4-0.3-0.8-0.6-1.4-0.7
		c-0.5-0.1-1.1-0.2-1.7-0.1c-0.2,0-0.3,0.1-0.4,0.3c-0.1,0.2-0.2,0.4-0.3,0.7c-0.2,0.8-0.2,1.5-0.2,2.3c0.1,1.1,0.1,2,0.2,2.5
		l0.3,2.1c0,0.1,0,0.1,0.1,0.2l0.1,0.4c0,0.2,0,0.3,0.1,0.5c0.2,1,0.4,2.1,0.7,3.1c0.3,1.1,0.7,2.1,1.4,3
		C55.2,59.1,55.5,59.4,55.9,59.6z M56.6,59.3c-0.6,0-1.1-0.6-1.6-1.8c-0.4-1.1-0.8-2.3-1.1-3.5c-0.2-0.9-0.3-1.7-0.5-2.6
		c-0.1-0.4-0.1-0.8-0.1-1.2l-0.1-1.1l-0.1-0.6c0-0.2-0.1-0.5-0.1-0.8c-0.1-0.8-0.2-1.5-0.1-2.1c0.1-1,0.7-1.3,1.2-1.3
		c0.6-0.1,1.2,0.1,1.7,0.5c0.5,0.4,0.8,1,1,1.7l0.1,0.5c0.1,0.6,0.3,1.5,0.6,2.8c0.3,1.2,0.5,2.1,0.6,2.9c0.1,0.6,0.2,1.3,0.2,2.2
		c0.1,1,0,1.9-0.1,2.8c-0.1,0.5-0.2,0.9-0.5,1.2c-0.2,0.3-0.6,0.5-0.9,0.6C56.7,59.3,56.7,59.3,56.6,59.3z M54.4,44.8
		c-0.1,0-0.2,0-0.3,0c-0.3,0-0.6,0.2-0.7,0.9c-0.1,0.5-0.1,1.2,0.1,1.9c0,0.3,0.1,0.6,0.1,0.8l0.1,0.7l0.1,1.1
		c0,0.3,0.1,0.7,0.1,1.1c0.1,0.9,0.3,1.7,0.5,2.6c0.3,1.2,0.6,2.4,1,3.4c0.4,1,0.8,1.5,1.1,1.5c0.2,0,0.4-0.2,0.6-0.4l0,0
		c0.2-0.2,0.3-0.6,0.4-0.9c0.2-0.9,0.2-1.8,0.1-2.7c0-0.8-0.1-1.6-0.2-2.2c-0.1-0.7-0.3-1.7-0.6-2.8c-0.3-1.2-0.5-2.2-0.6-2.8
		l-0.1-0.4c-0.1-0.5-0.4-1-0.8-1.4C55.2,44.9,54.8,44.8,54.4,44.8z"/>
</g>
<g>
	<path class="st0" d="M9.2,67.4c-0.6,0-0.9-0.6-1.1-1.7h0c-0.3-1.9-0.9-4.9-1.7-9c-1-5.2-1.4-6.2-1.5-6.4l-0.1-0.1l0-0.1
		c-0.1-0.5,0.1-1,0.5-1.4c0.1-0.1,0.3-0.2,0.6-0.3c0.2-0.1,0.5-0.2,0.7-0.2c0,0,0.2-0.1,0.6-0.1c0.4-0.1,0.8,0,1,0.1
		c0.3,0.1,0.4,0.4,0.5,0.8c0.1,0.3-0.1,0.5-0.2,0.7C8.4,49.9,8.2,50,7.9,50l-0.3,0l-0.3,0.1c-0.3,0-0.4,0.1-0.4,0.1
		C7,51,7.3,52.1,7.6,53.4c0.2,1,0.5,2,0.6,2.9c0.1,0,0.2-0.1,0.3-0.1C8.9,56.1,9.1,56,9.3,56c0.3,0,0.5,0,0.7,0.2
		c0.2,0.2,0.3,0.4,0.4,0.7c0.1,0.3-0.1,0.6-0.4,0.8c0,0-0.1,0.1-0.2,0.1C9.7,57.9,9.5,58,9.3,58c-0.1,0-0.4,0.1-0.7,0.2l0,0
		c0.2,0.9,0.4,2.2,0.8,3.7c0.4,1.7,0.7,3.1,0.9,4l0,0l0,0.2c0,0.1,0,0.2,0.1,0.3c0,0.3,0,0.5-0.2,0.7c-0.2,0.2-0.4,0.3-0.7,0.4
		C9.3,67.4,9.3,67.4,9.2,67.4z M8.6,65.7c0.1,0.5,0.3,1.3,0.7,1.2c0.2,0,0.3-0.1,0.4-0.2c0.1-0.1,0.1-0.2,0.1-0.3
		c0-0.2,0-0.2-0.1-0.3l0-0.1l0-0.2C9.6,65,9.3,63.7,8.9,62c-0.4-1.6-0.7-3-0.9-4l0-0.3l0.5-0.1c0.3-0.1,0.5-0.1,0.7-0.2
		c0.2,0,0.3-0.1,0.4-0.1c0.1-0.1,0.2-0.1,0.2-0.1c0.1-0.1,0.2-0.2,0.1-0.3c0-0.1-0.1-0.2-0.2-0.3c-0.1-0.1-0.2-0.1-0.3-0.1
		c-0.1,0-0.4,0.1-0.6,0.2c-0.3,0.1-0.5,0.2-0.6,0.3l-0.3,0.1l-0.1-0.3c-0.2-1-0.4-2.1-0.7-3.2c-0.3-1.4-0.6-2.5-0.7-3.3
		c-0.1-0.4,0.2-0.6,0.9-0.7l0.6-0.1c0.1,0,0.2-0.1,0.3-0.1c0,0,0.1-0.1,0.1-0.2c0-0.2-0.1-0.4-0.2-0.4c-0.1,0-0.3-0.1-0.7,0
		c-0.4,0.1-0.5,0.1-0.6,0.1c-0.2,0-0.4,0.1-0.6,0.2c-0.2,0.1-0.3,0.2-0.4,0.2c-0.2,0.2-0.3,0.5-0.3,0.8c0.1,0.2,0.4,1.2,1.5,6.5
		C7.8,60.7,8.3,63.8,8.6,65.7L8.6,65.7z"/>
</g>
<g>
	<path class="st0" d="M65.5,58.7c-0.3,0-0.6,0-0.8-0.1c-0.4-0.1-0.8-0.3-1.1-0.6c-0.3-0.2-0.5-0.5-0.8-1c-0.3-0.4-0.5-0.8-0.6-1.3
		c-0.1-0.3-0.3-0.7-0.4-1.3c-0.1-0.6-0.3-1.1-0.3-1.5L61,50.5c-0.1-0.9-0.3-1.7-0.3-2.3c-0.1-0.7-0.1-1.6,0-2.4
		c0-0.8,0.2-1.5,0.5-2.1c0.3-0.7,0.7-1.2,1.4-1.5c0.3-0.2,0.7-0.3,1.1-0.4c1.1-0.2,1.4,0.3,1.4,0.7c0,0.3,0,0.5-0.2,0.7
		c-0.2,0.2-0.4,0.3-0.7,0.4c-0.1,0-0.2,0-0.3,0c0,0-0.1,0-0.2,0c-0.2,0-0.3,0.2-0.5,0.4c-0.2,0.3-0.3,0.7-0.3,1.2
		c-0.1,1-0.1,2.1,0,3.3c0.1,1.1,0.2,1.9,0.3,2.5c0.1,0.5,0.2,1.3,0.4,2.2c0.2,0.9,0.5,1.6,0.8,2.2c0.2,0.4,0.3,0.6,0.5,0.8
		c0.2,0.2,0.4,0.3,0.6,0.4c0.3,0.1,0.5,0.2,0.7,0.1c0.3,0,0.9-0.5,0.3-3.8l-0.1-0.9c-0.1,0-0.2,0-0.3,0l-0.5,0.1
		c-1,0.2-1.2-0.3-1.2-0.6c0-0.3,0-0.6,0.2-0.8c0.2-0.2,0.4-0.3,0.7-0.4l0.3,0l0,0l0.1,0c1.1-0.2,2.5-0.3,2.6,0.6c0,0.2,0,0.5,0,0.9
		c0,0.4,0,0.7,0,0.9c0,0.3,0.1,0.7,0.3,1.3l0.3,1.3c0.1,0.9-0.1,1.6-0.6,2.2c-0.5,0.6-1.2,0.9-2,1.1C65.9,58.7,65.7,58.7,65.5,58.7z
		 M64,42.2c-0.1,0-0.2,0-0.4,0c-0.4,0.1-0.7,0.2-0.9,0.3c-0.5,0.3-0.9,0.7-1.2,1.2c-0.3,0.6-0.4,1.2-0.4,2c-0.1,0.8,0,1.6,0,2.3
		c0.1,0.6,0.2,1.4,0.3,2.3l0.4,2.4c0.1,0.4,0.2,0.9,0.3,1.5c0.1,0.6,0.3,1,0.4,1.3c0.1,0.4,0.3,0.8,0.6,1.2c0.2,0.4,0.5,0.7,0.7,0.8
		c0.3,0.2,0.6,0.4,1,0.5h0c0.4,0.1,0.8,0.1,1.2,0.1c0.7-0.1,1.3-0.4,1.7-0.9c0.4-0.5,0.6-1.1,0.5-1.8L68,54.2
		c-0.1-0.6-0.2-1-0.3-1.3c0-0.2,0-0.5,0-1c0-0.5,0-0.7,0-0.8c0-0.1-0.2-0.5-2-0.2L65.1,51c-0.1,0-0.1,0.1-0.2,0.1
		c-0.1,0.1-0.1,0.1-0.1,0.3c0,0.1,0,0.3,0.6,0.2l0.5-0.1c0.3,0,0.5-0.1,0.7,0l0.2,0l0.2,1.3c0.4,2.8,0.2,4.2-0.8,4.4
		c-0.3,0.1-0.7,0-1-0.2c-0.3-0.1-0.6-0.3-0.8-0.6c-0.2-0.2-0.4-0.5-0.6-0.9c-0.3-0.6-0.6-1.4-0.8-2.3c-0.2-1-0.3-1.7-0.4-2.3
		c-0.1-0.5-0.2-1.4-0.3-2.5c-0.1-1.2-0.1-2.4,0-3.4c0.1-0.6,0.2-1,0.4-1.4c0.2-0.4,0.5-0.6,0.9-0.7c0.1,0,0.2,0,0.3,0
		c0.1,0,0.1,0,0.2,0c0.2,0,0.3-0.1,0.4-0.2c0.1-0.1,0.1-0.2,0.1-0.3C64.5,42.4,64.5,42.2,64,42.2z"/>
</g>
<g>
	<path class="st0" d="M17.1,66.6c-0.4,0-0.7-0.1-1.1-0.3l0,0c-0.4-0.2-0.8-0.6-1.1-1c-0.6-0.9-1.1-2-1.4-3.2
		c-0.3-1.1-0.6-2.2-0.7-3.2c0-0.2-0.1-0.4-0.1-0.5l0-0.3l0,0l-0.1-0.7l-0.2-1.7c-0.1-0.5-0.1-1.4-0.2-2.5c0-0.8,0-1.6,0.2-2.4
		c0.1-0.4,0.2-0.7,0.4-0.9c0.2-0.3,0.4-0.4,0.7-0.5c0.7-0.1,1.3-0.1,1.9,0.1c0.6,0.2,1.1,0.4,1.6,0.8c0.4,0.4,0.8,0.9,1.1,1.4
		c0.3,0.6,0.6,1.2,0.8,1.9c0.2,0.7,0.4,1.4,0.5,2.2l0,0.2c0.1,0.5,0.2,1,0.2,1.4l0.2,1.4c0.8,4.8,0,7.5-2.4,7.9
		C17.4,66.6,17.3,66.6,17.1,66.6z M16.3,65.9c0.4,0.2,0.7,0.2,1.1,0.2c2-0.3,2.7-2.8,1.9-7.3l-0.2-1.4c-0.1-0.4-0.2-0.9-0.2-1.4
		l0-0.2c-0.1-0.8-0.3-1.5-0.5-2.1c-0.2-0.6-0.5-1.2-0.8-1.8c-0.3-0.5-0.6-1-1-1.3c-0.4-0.3-0.8-0.6-1.4-0.7
		c-0.5-0.1-1.1-0.2-1.7-0.1c-0.2,0-0.3,0.1-0.4,0.3c-0.1,0.2-0.2,0.4-0.3,0.7c-0.2,0.8-0.2,1.5-0.2,2.3c0.1,1.1,0.1,2,0.2,2.5
		l0.3,2.1c0,0,0,0.1,0.1,0.2l0.1,0.4c0,0.2,0,0.3,0.1,0.5c0.2,1,0.4,2.1,0.7,3.1c0.3,1.1,0.7,2.1,1.4,3C15.6,65.4,16,65.7,16.3,65.9
		L16.3,65.9z M17.1,65.6c-0.6,0-1.1-0.6-1.6-1.8c-0.4-1.1-0.8-2.3-1.1-3.5c-0.2-0.9-0.3-1.7-0.5-2.6c-0.1-0.4-0.1-0.8-0.1-1.2
		l-0.1-1.1l-0.1-0.6c0-0.2-0.1-0.5-0.1-0.8c-0.1-0.8-0.2-1.5-0.1-2.1c0.1-1,0.7-1.3,1.2-1.3c0.6-0.1,1.2,0.1,1.7,0.5
		c0.5,0.4,0.8,1,1,1.7l0.1,0.5c0.1,0.6,0.3,1.5,0.6,2.8c0.3,1.2,0.5,2.1,0.6,2.9c0.1,0.6,0.2,1.3,0.2,2.2c0.1,1,0,1.9-0.1,2.8
		c-0.1,0.5-0.2,0.9-0.5,1.2c-0.2,0.3-0.6,0.5-0.9,0.6C17.2,65.6,17.1,65.6,17.1,65.6z M14.9,51c-0.1,0-0.2,0-0.3,0
		c-0.3,0-0.6,0.2-0.7,0.9c-0.1,0.5-0.1,1.2,0.1,1.9c0,0.3,0.1,0.6,0.1,0.8l0.1,0.7l0.1,1.1c0,0.3,0.1,0.7,0.1,1.1
		c0.1,0.9,0.3,1.7,0.5,2.6c0.3,1.2,0.6,2.4,1,3.4c0.4,1,0.8,1.5,1.1,1.5c0.2,0,0.4-0.2,0.6-0.4l0,0c0.2-0.2,0.3-0.6,0.4-0.9
		c0.2-0.9,0.2-1.8,0.1-2.7c0-0.8-0.1-1.6-0.2-2.2c-0.1-0.7-0.3-1.7-0.6-2.8c-0.3-1.2-0.5-2.2-0.6-2.8l-0.1-0.4
		c-0.1-0.5-0.4-1-0.8-1.4C15.6,51.2,15.3,51,14.9,51z"/>
</g>
<g>
	<g>
		<path class="st0" d="M11.5,46.5c-0.4,0-0.7,0-1-0.1l0,0c-0.4-0.1-0.6-0.4-0.7-0.7c0-0.3,0-0.5,0.1-0.7c0.1-0.2,0.3-0.4,0.6-0.4
			c0.2,0,0.5,0,0.9,0.1c0.5,0.1,0.6,0.1,0.6,0.1c0.3,0,0.5-0.2,0.7-0.5c0.2-0.3,0.3-0.7,0.4-1.1c0.2-0.9,0.2-1.7,0.1-2.4
			c-0.1-0.7-0.4-1.5-0.7-2.2c-0.4-0.8-0.8-1.5-1.3-2.2l-0.6-0.8c-0.6-0.8-1-1.4-1.4-1.9c-0.3-0.5-0.6-1-0.9-1.6
			c-0.4-0.8-0.7-1.6-0.8-2.4c-0.1-0.7-0.1-1.3,0-1.9c0.1-0.6,0.4-1.2,0.8-1.7c0.4-0.5,1-0.9,1.7-1c0.4-0.1,0.7,0,1.1,0.1
			c0.4,0.2,0.7,0.4,0.9,0.7l0.1,0.1l-0.5,0.9l-0.1,0c-0.5,0.1-0.8,0.1-1.1-0.1C10,26.8,9.8,27,9.7,27.2c-0.2,0.3-0.3,0.6-0.3,0.9
			c0,0.3,0,0.6,0,0.9c0.1,0.6,0.3,1.3,0.6,1.9c0.3,0.6,0.6,1.2,1,1.8l2.5,3.4c0.4,0.6,0.8,1.3,1.1,2.1c0.3,0.8,0.5,1.6,0.7,2.4
			c0.2,1.2,0.1,2.4-0.3,3.5c-0.2,0.6-0.6,1.1-1,1.6c-0.5,0.4-1,0.7-1.6,0.8C12,46.5,11.7,46.5,11.5,46.5z M10.6,45.9
			c0.5,0.1,1,0.2,1.6,0.1c0.5-0.1,1-0.3,1.4-0.7c0.4-0.4,0.7-0.8,0.9-1.3c0.4-1.1,0.5-2.2,0.3-3.3c-0.1-0.8-0.3-1.5-0.6-2.3
			c-0.3-0.7-0.6-1.4-1-2l-2.5-3.4c-0.4-0.6-0.8-1.2-1.1-1.9c-0.3-0.7-0.5-1.4-0.6-2.1c-0.1-0.4-0.1-0.7,0-1.1
			c0.1-0.4,0.2-0.8,0.4-1.1c0.2-0.4,0.5-0.6,0.9-0.7l0.1,0l0.1,0.1c0.2,0.1,0.4,0.1,0.8,0.1l0.2-0.4c-0.1-0.2-0.3-0.3-0.5-0.4
			c-0.3-0.1-0.6-0.2-0.8-0.1c-0.6,0.1-1,0.4-1.4,0.8c-0.4,0.4-0.6,0.9-0.7,1.5c-0.1,0.6-0.1,1.1,0,1.7C8,30.2,8.3,31,8.7,31.8
			c0.3,0.6,0.6,1.1,0.9,1.5c0.3,0.5,0.8,1.1,1.4,1.9l0.6,0.8c0.5,0.7,1,1.5,1.4,2.3c0.4,0.8,0.6,1.6,0.8,2.4
			c0.1,0.7,0.1,1.6-0.1,2.5c-0.1,0.5-0.2,1-0.5,1.4c-0.3,0.4-0.6,0.6-1,0.7c-0.1,0-0.3,0-0.8-0.1c-0.4-0.1-0.6-0.1-0.7-0.1
			c-0.1,0-0.2,0.1-0.2,0.1c-0.1,0.1-0.1,0.2,0,0.4C10.3,45.7,10.4,45.8,10.6,45.9z"/>
	</g>
	<g>
		<path class="st0" d="M18.2,44.5c-0.5,0-0.9-0.2-1-0.5l-0.1-0.1l0.1-0.1c0.1-0.2,0.2-0.7,0.2-2.5l0.1-5c0-2.3,0-4.4,0.1-6
			c0.1-1.7,0.2-3.1,0.4-4.3c0.2-1.5,0.6-2.1,1.1-2.2c0.4-0.1,0.8,0,1,0.1l0.1,0.1l0,0.1c0.1,0.7,0.6,2.4,1.3,5
			c0.8,2.6,1.3,4.4,1.4,5.3c0.2,0.9,0.5,2.2,1,3.9c0.5,1.7,0.8,3.2,1,4.2c0.1,0.7-0.2,1.2-0.9,1.3c-0.3,0.1-0.6,0-0.8-0.1l0,0
			c-0.2-0.1-0.4-0.4-0.4-0.7l-0.6-3.3c-0.2-0.1-0.5-0.1-1.1-0.1c-0.6,0-1.1,0-1.6,0c-0.1,0.3-0.1,0.7-0.1,1.2l0,0.6
			c0,0.1,0,0.4,0,0.8c0,0.4-0.1,0.8-0.1,1.2c-0.1,0.3-0.1,0.6-0.2,0.8l-0.1,0.1l-0.1,0C18.6,44.5,18.4,44.5,18.2,44.5z M17.7,43.8
			c0.1,0.1,0.4,0.2,0.8,0.1c0-0.2,0.1-0.4,0.1-0.6c0.1-0.3,0.1-0.7,0.1-1.1c0-0.4,0-0.7,0-0.8l0-0.6c0-0.6,0.1-1.1,0.2-1.5l0.1-0.2
			l0.2,0c0.6-0.1,1.2-0.1,1.9-0.1c0.7,0,1.2,0.1,1.5,0.2l0.1,0.1l0.6,3.6c0,0.2,0.1,0.3,0.2,0.3c0.1,0.1,0.3,0.1,0.5,0
			c0.4-0.1,0.6-0.3,0.5-0.7c-0.2-1-0.5-2.4-1-4.2c-0.5-1.7-0.8-3-1-4c-0.2-0.9-0.6-2.7-1.4-5.3c-0.7-2.5-1.2-4.1-1.3-4.9
			c-0.2,0-0.4,0-0.6,0c0,0-0.4,0.1-0.6,1.8c-0.2,1.1-0.3,2.5-0.4,4.2C18,32,18,34,18,36.3l-0.1,5C17.9,42.9,17.8,43.5,17.7,43.8z
			 M20.1,38.6c-0.3,0-0.6,0-0.9-0.1l-0.2,0l0-0.2c-0.1-0.5-0.1-1.6-0.1-3.3c0-1.7,0-3.2,0.1-4.7c0.1-2,0.2-2.5,0.4-2.6l0.4-0.5
			l0.1,0.8c0.1,0.9,0.8,3.3,1.8,7.2c0.3,1.1,0.6,2.1,0.7,2.8l0.1,0.2l-0.2,0.1c-0.2,0.1-0.4,0.2-0.6,0.2
			C21.1,38.6,20.6,38.6,20.1,38.6z M19.4,38c0.7,0.1,1.4,0,2.1-0.1c0.1,0,0.2,0,0.2-0.1c-0.2-0.7-0.4-1.6-0.7-2.6
			c-0.8-2.8-1.3-4.8-1.6-6.1c0,0.3-0.1,0.7-0.1,1.1c-0.1,1.4-0.1,3-0.1,4.7C19.4,36.5,19.4,37.5,19.4,38z"/>
	</g>
	<g>
		<path class="st0" d="M28.3,43.2c-0.1,0-0.3,0-0.4-0.1c-0.1-0.1-0.3-0.2-0.3-0.5l-0.1-0.8c-0.1-0.6-0.1-0.9-0.1-1.1
			c-0.2-0.9-0.5-2.4-0.9-4.4c-0.4-2-0.7-3.3-0.8-3.7l-0.6-3.4c-0.1-0.6-0.2-1.4-0.3-2.4c-0.1-0.9-0.2-1.8-0.3-2.4l0-0.2
			c-0.1-0.5-0.1-0.8,0-1.1c0.1-0.5,0.4-0.6,0.6-0.6c0.4-0.1,0.8,0.3,1.3,1.1c0.8,1.2,1.9,3.3,3.4,6.4c0.8,1.8,1.8,4,2.9,6.8
			c-0.1-0.8-0.3-1.6-0.4-2.3l-0.7-4.6l-1.3-7.8c0-0.6,0.3-1,0.9-1.1c0.4-0.1,1,0,1.2,1.1l0,0.2l0,0.1c-0.1,0.2-0.1,0.4,0,0.7
			c0.2,1.1,0.4,2.7,0.7,4.9c0.3,2.2,0.6,3.8,0.7,4.9l1.4,8c0.1,0.3,0,0.7-0.1,1c-0.2,0.5-0.5,0.6-0.7,0.6c-0.3,0.1-0.7,0.1-3.3-5.2
			l0,0c-1.6-3.3-3-6.3-4.3-9.2l1.1,6.6c0.1,0.7,0.4,2,0.8,3.7c0.5,1.9,0.7,3.2,0.8,3.7c0,0.2,0,0.4-0.3,0.7
			c-0.2,0.2-0.5,0.3-0.8,0.3C28.5,43.2,28.4,43.2,28.3,43.2z M25.2,23c0,0-0.1,0-0.2,0.2c-0.1,0.2,0,0.5,0,0.9l0,0.2
			c0.1,0.7,0.2,1.5,0.3,2.5c0.1,1.1,0.2,1.9,0.3,2.4l0.6,3.4c0.1,0.4,0.3,1.7,0.8,3.7c0.4,2,0.7,3.5,0.9,4.4c0,0.2,0.1,0.5,0.1,1.1
			l0.1,0.8c0,0.1,0,0.1,0.1,0.1c0,0,0.1,0,0.3,0c0.2,0,0.4-0.1,0.5-0.2c0.1-0.1,0.1-0.2,0.1-0.2c-0.1-0.5-0.4-1.8-0.8-3.7
			c-0.4-1.7-0.7-3-0.8-3.7l-1.8-10.7l0.9,1.9c1.5,3.4,3.2,7.1,5.1,11.1c2,4.1,2.7,4.8,2.8,4.9c0.1,0,0.2-0.1,0.2-0.3
			c0.1-0.2,0.1-0.5,0.1-0.7l-1.4-8c-0.2-1.1-0.4-2.7-0.7-4.9c-0.3-2.2-0.6-3.8-0.7-4.8c-0.1-0.3,0-0.6,0-0.8l0-0.1
			c-0.1-0.8-0.4-0.7-0.6-0.7c-0.5,0.1-0.5,0.3-0.5,0.5l1.3,7.7l0.7,4.6c0.2,1.3,0.4,2.9,0.7,4.6l-0.5,0.1l0-0.1
			c-0.4-1-0.6-1.5-0.7-1.7l0,0l0,0c0,0,0,0,0,0l0,0c-1.2-2.8-2.2-5.2-3-7c-1.4-3.1-2.5-5.2-3.3-6.4C25.4,23.1,25.2,23,25.2,23z"/>
	</g>
	<g>
		<path class="st0" d="M39.7,41.2c-0.3,0-0.5,0-0.7-0.1l0,0c-0.4-0.1-0.6-0.4-0.7-0.8l0-0.1l0.1-0.1c0.2-0.3,0.3-1,0-3
			c-0.2-1-0.5-2.4-1-4.3c-0.5-1.8-0.8-3.2-1-4.3l-0.2-1.5c-0.1-0.4-0.1-0.9-0.2-1.4c-0.1-0.5-0.3-1.1-0.6-1.8
			c-0.4-0.8-0.6-1.3-0.6-1.7c-0.1-0.8,0.6-1.3,2.1-1.6l0.4-0.1c1-0.2,1.9,0,2.8,0.5c0.7,0.4,1.3,1.1,1.9,2c0.4,0.6,0.8,1.5,1.2,2.6
			c0.3,1,0.5,1.8,0.6,2.3l0.4,2.1l0,0.1c0,0,0,0.1,0,0.1c0,0.2,0,0.2,0.1,0.2c0,0.1,0.1,0.2,0.1,0.3c0.1,0.6,0.1,1.3,0.1,2.1
			c0,0.8-0.1,1.7-0.3,2.5c-0.5,2.1-1.2,3.7-2,4.7c-0.5,0.6-1.2,1-1.9,1.1C40,41.2,39.9,41.2,39.7,41.2z M38.9,40.3
			c0,0.1,0.1,0.2,0.3,0.3h0c0.2,0.1,0.5,0.1,0.8,0.1c0.6-0.1,1.1-0.4,1.5-0.9c0.8-0.9,1.4-2.4,1.9-4.4c0.2-0.8,0.3-1.7,0.3-2.5
			c0-0.8,0-1.5-0.1-2c0-0.1,0-0.2-0.1-0.2c0-0.1-0.1-0.2-0.1-0.4c0-0.1,0-0.2,0-0.3l-0.3-2c-0.1-0.6-0.3-1.3-0.5-2.3
			c-0.4-1.1-0.7-1.9-1.1-2.4c-0.5-0.8-1.1-1.4-1.7-1.8c-0.7-0.4-1.6-0.6-2.4-0.4l-0.4,0.1c-0.8,0.1-1.7,0.4-1.7,1
			c0,0.3,0.2,0.8,0.6,1.5c0.3,0.7,0.5,1.4,0.6,1.9c0.1,0.5,0.2,1,0.2,1.5l0.2,1.5c0.2,1,0.5,2.5,1,4.2c0.5,1.9,0.8,3.3,1,4.3
			C39.3,38.7,39.2,39.8,38.9,40.3z M40.2,39.8l-0.5-3c-0.3-1.6-0.8-4-1.5-7.1c-0.7-3.1-1.3-5.5-1.5-7.1l0-0.3l0.3-0.1
			c0.6-0.1,1.2-0.1,1.7,0.1c0.5,0.2,1,0.5,1.4,0.9c0.8,0.8,1.4,1.7,1.8,2.8c0.4,1.1,0.6,2.1,0.8,3.1c0.3,1.8,0.4,3.6,0.2,5.4
			c-0.1,1-0.4,1.9-0.7,2.8v0c-0.4,0.9-0.9,1.6-1.5,2.1L40.2,39.8z M37.2,22.8c0.3,1.6,0.8,3.9,1.5,6.8c0.7,3.1,1.3,5.5,1.5,7.2
			l0.3,2c0.4-0.4,0.7-1,1-1.6l0,0c0.4-0.8,0.6-1.7,0.7-2.7c0.2-1.8,0.1-3.5-0.2-5.3c-0.2-0.9-0.4-1.9-0.8-3c-0.4-1-0.9-1.9-1.7-2.6
			c-0.3-0.3-0.7-0.6-1.2-0.7C38.1,22.8,37.6,22.8,37.2,22.8z"/>
	</g>
	<g>
		<path class="st0" d="M50.5,39.7c-0.2,0-0.4-0.1-0.5-0.2l0,0c-0.2-0.1-0.3-0.3-0.4-0.6l-0.4-2.6c-0.1-1.1-0.3-2-0.3-2.6
			c-0.1-0.5-0.3-1.2-0.6-2.2c-0.3-1-0.6-1.7-0.7-2.3c-0.1-0.6-0.3-1.4-0.7-2.2c-0.3-0.8-0.7-1.6-1.1-2.3c-0.4-0.7-0.8-1.5-1.1-2.3
			c-0.3-0.8-0.6-1.6-0.7-2.3c0-0.1,0-0.4,0.2-0.6c0.2-0.1,0.3-0.2,0.6-0.3c0.5-0.1,0.8,0.5,0.9,0.6c0.3,0.4,0.6,1,1,1.9
			c0.3,0.8,0.5,1.3,0.6,1.4l0.5,1.4c-0.1-1.3-0.2-2.3-0.2-3.2c0-0.7,0.1-1.3,0.2-1.7c0.1-0.5,0.4-0.8,0.7-0.9
			c0.4-0.1,0.7-0.1,0.9,0.1c0.1,0.1,0.2,0.2,0.2,0.3c0.2,1,0.2,2.6,0.1,4.6c-0.1,2-0.1,3.5,0.1,4.5l0,0.5c0,0.3,0,0.4,0,0.4l0,0l0,0
			l0.1,0.4c0.1,0.7,0.3,1.9,0.7,3.4l0.6,3.5l0.3,1.2l0.1,0.7c0,0.3,0,0.6-0.2,0.8c-0.2,0.2-0.4,0.4-0.8,0.4
			C50.6,39.7,50.6,39.7,50.5,39.7z M50.3,39.1c0.1,0.1,0.2,0.1,0.3,0.1c0.2,0,0.3-0.1,0.4-0.2c0.1-0.1,0.1-0.2,0.1-0.4L51,37.9
			l-0.3-1.2l-0.6-3.5c-0.3-1.5-0.5-2.7-0.7-3.5l-0.1-0.4c0-0.1-0.1-0.2-0.1-0.5l0-0.4c-0.2-1-0.2-2.5-0.1-4.6c0.1-2,0.1-3.4-0.1-4.4
			c-0.1,0-0.2,0-0.5,0c-0.2,0-0.3,0.3-0.3,0.5c-0.1,0.4-0.1,0.9-0.2,1.5c0,1,0.1,2.2,0.2,3.7c0,0.5,0.1,0.9,0.1,1.2l0,1.3l-0.9-2.3
			l-0.7-1.8c-0.1-0.1-0.3-0.6-0.6-1.4c-0.3-0.8-0.6-1.4-0.9-1.8c-0.2-0.3-0.4-0.4-0.4-0.4c-0.1,0-0.2,0.1-0.3,0.1
			c0,0-0.1,0.1-0.1,0.1c0.1,0.6,0.3,1.4,0.7,2.2c0.3,0.8,0.7,1.6,1.1,2.3c0.4,0.7,0.8,1.5,1.2,2.4c0.3,0.8,0.6,1.6,0.7,2.3
			c0.1,0.5,0.3,1.3,0.6,2.2c0.3,1,0.5,1.7,0.6,2.3c0.1,0.6,0.2,1.4,0.4,2.6l0.4,2.6C50.1,39,50.2,39.1,50.3,39.1z"/>
	</g>
	<g>
		<path class="st0" d="M54.5,24.5c-0.2,0-0.3-0.1-0.4-0.2c-0.1-0.1-0.1-0.3-0.2-0.5c-0.1-0.7-0.1-1.6,0-2.6c0.1-1,0.4-1.9,0.7-2.6
			c0.3-0.8,0.7-1.2,1-1.3c0.2,0,0.4,0,0.5,0.2c0.1,0.1,0.2,0.3,0.2,0.5c0.1,0.4,0.1,0.9,0.1,1.6c0,0.7-0.1,1.3-0.2,2
			c-0.1,0.8-0.3,1.4-0.5,2C55.4,24,55,24.4,54.5,24.5C54.6,24.5,54.5,24.5,54.5,24.5z M55.7,17.7c0,0-0.2,0.1-0.6,1
			c-0.3,0.7-0.5,1.5-0.6,2.5c-0.1,1-0.1,1.8,0,2.5l0,0c0,0.3,0.1,0.3,0.1,0.3c0.2-0.1,0.4-0.3,0.6-0.7c0.2-0.5,0.4-1.1,0.5-1.8
			c0.1-0.7,0.1-1.3,0.1-2c0-0.6,0-1.1-0.1-1.5C55.7,17.8,55.7,17.7,55.7,17.7z"/>
	</g>
	<g>
		<path class="st0" d="M64.1,37.5c-0.4,0-0.7-0.1-1-0.2c-0.3-0.2-0.5-0.4-0.6-0.8l0-0.1l0.3-0.7l0.1,0c0.1,0,0.3,0,0.6,0
			c0.2,0,0.4,0,0.5,0c0.2,0,0.4-0.2,0.6-0.4c0.2-0.3,0.3-0.7,0.3-1.1c0.1-0.9,0.1-1.6,0-2.2c-0.2-1.1-0.7-2.2-1.7-3.3l-0.4-0.5
			c-0.4-0.5-0.8-1-1.1-1.4c-0.3-0.4-0.6-0.9-0.8-1.4c-0.3-0.7-0.6-1.4-0.7-2.1c-0.1-0.8-0.1-1.7,0.1-2.6c0.1-0.5,0.3-0.9,0.6-1.2
			c0.3-0.4,0.7-0.6,1.2-0.6c0.4-0.1,0.7,0,1.1,0.2c0.4,0.2,0.6,0.5,0.7,0.8c0,0.2,0,0.5-0.2,0.6c-0.1,0.1-0.3,0.2-0.6,0.3
			c-0.2,0-0.4,0-0.6,0c-0.2,0.1-0.4,0.4-0.5,0.9C62,22.1,62,22.6,62,23c0.1,0.5,0.2,1,0.5,1.4c0.2,0.5,0.5,0.9,0.8,1.3l0.8,1
			l1.2,1.6c0.3,0.5,0.6,1,0.9,1.7c0.3,0.6,0.5,1.3,0.6,2c0.2,1.1,0.1,2.2-0.2,3.3c-0.2,0.6-0.5,1.1-0.9,1.5
			c-0.4,0.3-0.8,0.6-1.3,0.7l0,0.1L64.1,37.5C64.1,37.5,64.1,37.5,64.1,37.5z M63,36.4c0.1,0.2,0.2,0.3,0.3,0.4h0
			c0.1,0.1,0.3,0.1,0.4,0.1l0,0l0.3,0c0.5-0.1,0.9-0.3,1.3-0.6c0.4-0.3,0.6-0.8,0.8-1.2c0.3-1,0.4-2,0.2-3.1
			c-0.1-0.6-0.3-1.3-0.5-1.9c-0.2-0.6-0.5-1.1-0.8-1.6l-2-2.5c-0.3-0.4-0.6-0.8-0.9-1.3c-0.3-0.5-0.4-1-0.5-1.6
			c-0.1-0.4-0.1-1,0-1.7c0.1-0.8,0.5-1.3,1-1.4l0.1,0l0.1,0c0.1,0.1,0.3,0.1,0.4,0.1c0.1,0,0.2-0.1,0.3-0.1c0,0,0.1-0.1,0-0.2
			c0-0.2-0.2-0.3-0.4-0.5c-0.3-0.1-0.5-0.2-0.8-0.1c-0.3,0.1-0.6,0.2-0.9,0.5c-0.3,0.3-0.4,0.6-0.5,1c-0.2,0.9-0.2,1.7-0.1,2.4
			c0.1,0.7,0.3,1.3,0.6,1.9c0.2,0.5,0.5,0.9,0.8,1.3c0.3,0.4,0.7,0.9,1.1,1.4l0.4,0.5c1,1.2,1.6,2.4,1.8,3.6c0.1,0.7,0.1,1.5,0,2.4
			c0,0.5-0.2,1-0.4,1.3c-0.2,0.4-0.6,0.6-1,0.7c-0.2,0-0.4,0-0.7,0c-0.2,0-0.3,0-0.3,0L63,36.4z"/>
	</g>
</g>
<g>
	<g>
		<path class="st0" d="M9.9,22.9H8.4l0.4-0.6c6-9.8,16.5-15.6,27.9-15.6c9,0,17.4,3.6,23.6,10.1l0.6,0.7h-1.8L59,17.4
			C53,11.4,45.1,8,36.6,8C25.8,8,15.9,13.5,10,22.7L9.9,22.9z"/>
	</g>
	<g>
		<path class="st0" d="M5.4,47H4.1L4,46.6c-0.4-2.2-0.7-4.4-0.7-6.6c0-3.3,0.5-6.6,1.5-9.7L4.9,30h1.4l-0.2,0.5
			c-1,3.1-1.5,6.3-1.5,9.5c0,2.2,0.2,4.3,0.7,6.5L5.4,47z"/>
	</g>
	<g>
		<path class="st0" d="M36.6,74.4c-6.5,0-12.8-1.9-18.2-5.6l-0.2-0.1v-1.6l0.6,0.4c5.3,3.6,11.4,5.5,17.8,5.5
			c9.6,0,18.6-4.3,24.6-11.9l0.1-0.1H63l-0.5,0.6C56.2,69.7,46.8,74.4,36.6,74.4z"/>
	</g>
</g>
<g>
	<g>
		<path class="st0" d="M74.7,44.6c-0.1-0.1-0.3-0.1-0.4,0c-0.2,0.3-1,0.5-1.4,0.6c-0.1,0-0.2,0.2-0.2,0.3c0,0.1,0,0.1,0.1,0.1
			c0.1,0,0.1,0.1,0.2,0c0.1,0,1.3-0.3,1.7-0.8C74.8,44.9,74.8,44.7,74.7,44.6z"/>
	</g>
	<g>
		<path class="st0" d="M72.5,42.9c-0.1-0.1-0.3-0.1-0.4,0l-1,1.2c-0.1,0.1-0.1,0.3,0,0.4s0.3,0.1,0.4,0l1-1.2
			C72.6,43.1,72.6,43,72.5,42.9z"/>
	</g>
	<g>
		<path class="st0" d="M77.2,41.4c-0.1-0.1-0.3-0.2-0.4-0.3c0-0.9-0.4-1.7-1.1-2.3c-0.7-0.6-1.6-0.8-2.5-0.6
			c-0.1-0.1-0.2-0.2-0.3-0.3c-1.2-1-3-0.8-3.9,0.4c-0.7,0.8-0.8,1.9-0.4,2.9l-2.4,3c-0.2,0.2-0.3,0.5-0.2,0.8c0,0.3,0.2,0.5,0.4,0.7
			l4.7,3.8c0.4,0.4,1.1,0.3,1.5-0.2l2.4-3c1,0.2,2.1-0.2,2.7-1C78.6,44.2,78.4,42.4,77.2,41.4z M72.1,49.1c-0.2,0.2-0.5,0.3-0.7,0.1
			l-4.7-3.8c-0.1-0.1-0.2-0.2-0.2-0.4c0-0.1,0-0.3,0.1-0.4l0.6-0.8l5.6,4.4L72.1,49.1z M74.9,45.8C74.9,45.8,74.9,45.8,74.9,45.8
			c-0.1,0-0.1,0-0.2,0c0,0-0.1,0-0.1,0.1c0,0,0,0,0,0l-1.6,2l-5.6-4.4l1.6-1.9c0,0,0,0,0,0c0,0,0-0.1,0-0.1c0,0,0-0.1,0-0.1
			c0,0,0,0,0,0c-0.4-0.8-0.3-1.8,0.2-2.5c0.8-1,2.2-1.1,3.2-0.4c0,0,0.1,0.1,0.1,0.1c-0.5,0.2-0.9,0.5-1.3,0.9
			c-0.1,0.1-0.1,0.3,0,0.4c0.1,0.1,0.3,0.1,0.4,0c0.9-1.1,2.5-1.3,3.6-0.4c1.1,0.9,1.3,2.5,0.4,3.6c-0.1,0.1-0.1,0.3,0,0.4
			c0.1,0.1,0.3,0.1,0.4,0c0.3-0.4,0.5-0.9,0.6-1.4c0,0,0.1,0.1,0.1,0.1c1,0.8,1.1,2.2,0.4,3.2C76.7,45.8,75.8,46.1,74.9,45.8z"/>
	</g>
</g>
</svg>
